<svg id="Capa_1" enable-background="new 0 0 512.287 512.287" height="512" viewBox="0 0 512.287 512.287" width="512" xmlns="http://www.w3.org/2000/svg"><g><g><g><circle cx="355.944" cy="68.54" fill="#fedf30" r="25.704"/><circle cx="154.133" cy="433.641" fill="#60b7ff" r="25.704"/><ellipse cx="427.122" cy="353.788" fill="#fea95c" rx="25.704" ry="25.704" transform="matrix(.924 -.383 .383 .924 -102.876 190.383)"/><circle cx="74.581" cy="147.07" fill="#22b37f" r="25.704"/></g><g><ellipse cx="256.144" cy="256.144" fill="#fedf30" rx="105.891" ry="105.891" transform="matrix(.707 -.707 .707 .707 -106.098 256.144)"/><path d="m287.845 155.082c26.758 19.218 44.19 50.603 44.19 86.062 0 58.482-47.409 105.891-105.892 105.891-11.044 0-21.692-1.693-31.701-4.83 17.374 12.479 38.678 19.83 61.701 19.83 58.482 0 105.892-47.409 105.892-105.891 0-47.439-31.195-87.589-74.19-101.062z" fill="#fac600"/><path d="m275.599 184.204c5.99-.048 9.984 5.447 7.977 10.627-5.332 13.766-11.234 27.359-16.989 40.955-.348.823-.099 1.166.583 1.56 10.776 6.221 21.528 12.484 32.314 18.686 5.314 3.056 6.16 9.274 1.726 13.48-19.536 18.533-39.104 37.033-58.664 55.541-3.281 3.104-6.512 3.809-9.875 2.18-3.664-1.774-5.462-5.943-3.966-9.807 2.041-5.274 4.277-10.473 6.448-15.695 3.504-8.425 7.008-16.85 10.558-25.255.362-.858.059-1.163-.602-1.543-10.91-6.274-21.928-12.422-32.702-18.926-5.016-3.028-5.608-9.202-1.333-13.253 19.549-18.522 39.154-36.985 58.664-55.548 1.802-1.712 3.776-2.934 5.861-3.002z" fill="#fea95c"/><path d="m299.485 256.032c-10.786-6.203-21.538-12.465-32.314-18.686-.682-.394-.931-.737-.583-1.56 5.755-13.596 11.657-27.189 16.989-40.955 2.006-5.181-1.988-10.676-7.977-10.627-2.085.068-4.059 1.291-5.859 3.002-7.031 6.689-14.082 13.358-21.131 20.029-.852 2.769-5.648 12.782-8.784 20.569-2.079 5.163-.012 11.066 4.805 13.855 8.282 4.795 16.558 9.602 24.855 14.372 5.314 3.056 6.16 9.274 1.726 13.48-12.45 11.811-24.92 23.601-37.385 35.395-1.743 4.159-3.493 8.315-5.12 12.519-1.495 3.865.303 8.034 3.966 9.808 3.364 1.628 6.594.924 9.875-2.18 19.56-18.508 39.128-37.008 58.664-55.541 4.433-4.205 3.587-10.423-1.727-13.48z" fill="#fe9738"/></g></g><path d="m510.972 187.304c-5.541-20.82-29.79-34.682-70.124-40.088-21.233-2.847-46.694-3.246-74.609-1.293 1.153-16.389 1.497-31.936.988-46.297 12.771-4.628 21.921-16.878 21.921-31.227 0-18.189-14.704-33.002-32.848-33.195-7.272-18.952-17.83-30.406-31.457-34.029-20.77-5.529-44.915 8.524-69.836 40.643-13.191 17.001-26.399 38.923-38.801 64.164-15.497-10.405-30.581-19.361-44.843-26.568-3.696-1.867-8.208-.386-10.077 3.312-1.868 3.697-.385 8.208 3.312 10.076 14.297 7.225 29.477 16.281 45.107 26.874-6.226 13.579-12.195 27.97-17.803 42.945-11.391 7.861-21.278 17.748-29.139 29.139-15.01 5.619-29.38 11.562-42.957 17.778-8.821-13.018-16.586-25.728-23.105-37.87 6.798-6.084 11.086-14.918 11.086-24.737 0-18.281-14.851-33.157-33.122-33.202-1.943-11.849-1.839-25.418 5.974-33.231 9.577-9.578 29.943-9.357 57.35.626 3.896 1.418 8.196-.589 9.614-4.48 1.418-3.892-.588-8.196-4.479-9.614-33.68-12.27-58.954-11.282-73.094 2.86-10.318 10.318-13.654 26.188-9.996 47.2-11.037 5.402-18.657 16.747-18.657 29.84 0 18.309 14.896 33.204 33.204 33.204 3.11 0 6.117-.439 8.974-1.242 6.423 11.948 13.998 24.407 22.549 37.144-23.645 11.603-46.794 25.366-64.146 38.831-32.118 24.921-46.172 49.069-40.642 69.834 5.541 20.819 29.79 34.683 70.124 40.089 22.503 3.016 50.122 3.074 74.61 1.291-.875 12.397-1.288 24.308-1.215 35.549-13.796 4.032-23.906 16.789-23.906 31.87 0 17.798 14.077 32.366 31.681 33.166 8.902 31.023 23.679 41.193 34.834 44.165 25.182 6.707 46.241-10.231 69.836-40.642 13.195-17.006 26.406-38.935 38.81-64.183 23.235 15.588 45.524 27.91 65.371 35.996 29.118 11.863 60.553 20.353 80.794.114 15.645-15.643 12.51-41.943 6.197-63.049 7.252-6.096 11.873-15.227 11.873-25.419 0-20.384-18.474-36.024-38.466-32.783-4.783-8.189-10.008-16.504-15.656-24.922 14.915-7.322 28.682-14.927 40.932-22.657 3.503-2.21 4.552-6.842 2.341-10.345-2.21-3.504-6.843-4.553-10.345-2.341-12.363 7.8-26.355 15.48-41.565 22.866-8.647-12.147-18.139-24.48-28.431-36.934-1.149-13.824-4.787-26.95-10.465-38.931 2.729-15.966 4.832-31.559 6.296-46.56 27.785-2.072 53.025-1.755 73.888 1.041 33.357 4.471 53.82 14.799 57.622 29.081 3.8 14.27-8.751 33.493-35.343 54.126-3.272 2.539-3.867 7.25-1.328 10.523 2.554 3.292 7.274 3.849 10.523 1.328 32.119-24.922 46.173-49.071 40.644-69.836zm-436.391-22.171c-10.038 0-18.204-8.166-18.204-18.204s8.166-18.204 18.204-18.204 18.204 8.167 18.204 18.204-8.166 18.204-18.204 18.204zm192.277-114.12c20.634-26.591 39.852-39.142 54.129-35.342 9.789 2.603 16.322 12.786 20.497 22.843-11.084 5.385-18.744 16.757-18.744 29.885 0 17.067 12.946 31.163 29.532 32.997.452 14.181.065 29.547-1.15 45.791-15.022 1.458-30.633 3.563-46.577 6.289-11.98-5.678-25.107-9.316-38.93-10.465-12.378-10.226-24.752-19.734-36.94-28.407 12.221-25.156 25.233-46.902 38.183-63.591zm82.908 111.38c-.848 8.265-1.916 16.731-3.156 25.328-6.337-8.375-13.806-15.844-22.18-22.181 8.594-1.238 17.065-2.302 25.336-3.147zm-127.562-33.986c6.632 4.768 13.324 9.799 20.043 15.057-10.466 1.285-20.495 3.999-29.885 7.944 3.194-7.888 6.479-15.571 9.842-23.001zm33.94 29.204c54.253 0 98.392 44.138 98.392 98.392 0 54.253-44.139 98.392-98.392 98.392s-98.392-44.139-98.392-98.392c0-54.254 44.139-98.392 98.392-98.392zm-68.285 188.856c-8.591 1.237-17.057 2.301-25.324 3.146.848-8.274 1.913-16.74 3.148-25.323 6.335 8.373 13.803 15.842 22.176 22.177zm-36.311-134.245c-3.945 9.391-6.659 19.42-7.944 29.886-5.256-6.716-10.288-13.409-15.058-20.043 7.431-3.364 15.115-6.649 23.002-9.843zm-78.115 137.701c-33.357-4.472-53.82-14.799-57.622-29.08-3.8-14.271 8.752-33.493 35.344-54.126 16.689-12.95 38.436-25.962 63.592-38.185 8.678 12.195 18.187 24.572 28.405 36.94 1.149 13.824 4.787 26.951 10.466 38.932-2.719 15.912-4.832 31.53-6.299 46.562-27.785 2.072-53.023 1.754-73.886-1.043zm80.7 101.781c-10.038 0-18.204-8.166-18.204-18.204s8.166-18.204 18.204-18.204 18.204 8.166 18.204 18.204-8.166 18.204-18.204 18.204zm91.297 9.288c-20.633 26.591-39.853 39.148-54.125 35.344-7.247-1.93-16.982-9.245-23.877-32.418 11.708-5.137 19.91-16.835 19.91-30.417 0-16.364-11.903-29.992-27.503-32.704-.052-11.351.398-23.404 1.342-35.982 15.021-1.458 30.626-3.557 46.568-6.283 11.981 5.678 25.107 9.316 38.931 10.465 12.36 10.209 24.744 19.724 36.945 28.396-12.226 25.158-25.24 46.908-38.191 63.599zm44.66-77.408c-6.634-4.765-13.327-9.792-20.043-15.043 10.463-1.285 20.49-3.999 29.878-7.944-3.192 7.883-6.475 15.562-9.835 22.987zm137.031-48.141c10.038 0 18.204 8.166 18.204 18.204s-8.166 18.204-18.204 18.204-18.204-8.166-18.204-18.204 8.166-18.204 18.204-18.204zm-58.439-65.54c5.242 6.703 10.275 13.401 15.052 20.048-7.433 3.361-15.115 6.644-22.997 9.834 3.946-9.389 6.66-19.417 7.945-29.882zm23.779 32.552c5.571 8.217 10.717 16.308 15.38 24.185-8.421 6.029-13.925 15.885-13.925 27.008 0 18.309 14.896 33.204 33.204 33.204 2.655 0 5.234-.322 7.711-.914 5.999 21.431 4.927 37.462-3.182 45.572-10.488 10.488-33.405 9.282-64.527-3.398-19.476-7.936-41.501-20.197-64.531-35.796 6.224-13.574 12.19-27.959 17.796-42.929 11.391-7.861 21.279-17.748 29.14-29.14 14.964-5.604 29.348-11.571 42.934-17.792zm-36.517-215.852c-10.038 0-18.204-8.167-18.204-18.204s8.166-18.204 18.204-18.204 18.204 8.167 18.204 18.204-8.166 18.204-18.204 18.204zm-147.412 175.684c9.344 5.643 18.761 10.957 28.098 16.289-4.622 11.018-10.355 24.205-14.92 36.004-2.887 7.462.421 15.743 7.692 19.263 5.718 2.768 12.296 2.23 18.3-3.481 19.305-18.364 39.339-37.205 58.671-55.548 3.817-3.622 5.672-8.513 5.088-13.417-.591-4.959-3.593-9.336-8.237-12.007-9.2-5.29-18.373-10.622-27.558-15.937 5.001-11.768 10.195-23.904 14.903-36.054 1.809-4.667 1.189-9.911-1.656-14.028-5.771-8.35-16.873-8.846-24.343-1.739-19.658 18.705-39.087 36.998-58.653 55.537-3.775 3.577-5.638 8.435-5.109 13.327.523 4.845 3.339 9.143 7.724 11.791zm7.702-14.229c11.992-11.363 55.875-53.709 59.804-56.46.396.085.544.299.545.384-5.306 13.681-11.216 27.306-16.901 40.74-1.794 4.239-.291 8.651 3.74 10.979 10.78 6.223 21.535 12.488 32.325 18.693 1.099.632 1.138.745.303 1.537-15.586 14.786-58.537 55.967-59.934 56.487-.146-.055-.506-.189-.416-.425 5.161-13.481 11.659-28.292 16.921-40.739 1.488-3.521.899-8.276-3.771-10.964-10.839-6.238-21.798-12.344-32.564-18.844-.802-.484-.768-.711-.052-1.388z"/></g></svg>