<svg width="40" height="40" viewBox="0 0 40 40" fill="none" xmlns="http://www.w3.org/2000/svg">
<path d="M10.1501 31.6667H30.1501L27.9834 33.8167C27.6696 34.1305 27.4933 34.5562 27.4933 35C27.4933 35.4439 27.6696 35.8695 27.9834 36.1834C28.2973 36.4972 28.7229 36.6735 29.1667 36.6735C29.6106 36.6735 30.0362 36.4972 30.3501 36.1834L35.3501 31.1834C35.5063 31.0284 35.6303 30.8441 35.7149 30.641C35.7995 30.4379 35.8431 30.2201 35.8431 30C35.8431 29.78 35.7995 29.5622 35.7149 29.3591C35.6303 29.156 35.5063 28.9716 35.3501 28.8167L30.3501 23.8167C30.1951 23.6605 30.0108 23.5365 29.8077 23.4519C29.6046 23.3673 29.3868 23.3237 29.1667 23.3237C28.9467 23.3237 28.7289 23.3673 28.5258 23.4519C28.3227 23.5365 28.1384 23.6605 27.9834 23.8167C27.8272 23.9716 27.7032 24.156 27.6186 24.3591C27.534 24.5622 27.4904 24.78 27.4904 25C27.4904 25.2201 27.534 25.4379 27.6186 25.641C27.7032 25.8441 27.8272 26.0284 27.9834 26.1834L30.1501 28.3334H10.1501C9.80863 28.34 9.46921 28.2793 9.15123 28.1547C8.83324 28.0301 8.54291 27.8441 8.29682 27.6073C8.05073 27.3705 7.85371 27.0876 7.717 26.7746C7.5803 26.4617 7.50658 26.1248 7.50008 25.7834V21.6667C7.50008 21.2247 7.32449 20.8008 7.01193 20.4882C6.69937 20.1756 6.27544 20 5.83341 20C5.39139 20 4.96746 20.1756 4.6549 20.4882C4.34234 20.8008 4.16675 21.2247 4.16675 21.6667V25.7834C4.17329 26.5626 4.33324 27.3328 4.63747 28.0502C4.94171 28.7676 5.38427 29.418 5.93988 29.9643C6.49548 30.5106 7.15326 30.9421 7.87566 31.2342C8.59805 31.5263 9.3709 31.6733 10.1501 31.6667Z" fill="#453636"/>
<path d="M9.64998 16.1833C9.96382 16.4972 10.3895 16.6735 10.8333 16.6735C11.2771 16.6735 11.7028 16.4972 12.0166 16.1833C12.3305 15.8695 12.5068 15.4438 12.5068 15C12.5068 14.5562 12.3305 14.1305 12.0166 13.8167L9.84998 11.6667L29.85 11.6667C30.1914 11.66 30.5308 11.7207 30.8488 11.8453C31.1668 11.9699 31.4571 12.1559 31.7032 12.3927C31.9493 12.6295 32.1464 12.9125 32.2831 13.2254C32.4198 13.5384 32.4935 13.8752 32.5 14.2167V18.3333C32.5 18.7754 32.6756 19.1993 32.9881 19.5118C33.3007 19.8244 33.7246 20 34.1666 20C34.6087 20 35.0326 19.8244 35.3452 19.5118C35.6577 19.1993 35.8333 18.7754 35.8333 18.3333V14.2167C35.8268 13.4375 35.6668 12.6672 35.3626 11.9499C35.0583 11.2325 34.6158 10.5821 34.0602 10.0358C33.5046 9.48943 32.8468 9.05789 32.1244 8.76579C31.402 8.47369 30.6292 8.32674 29.85 8.33333L9.84998 8.33333L12.0166 6.18333C12.1729 6.02839 12.2968 5.84406 12.3815 5.64096C12.4661 5.43786 12.5096 5.22002 12.5096 5C12.5096 4.77998 12.4661 4.56214 12.3815 4.35904C12.2968 4.15594 12.1729 3.97161 12.0166 3.81667C11.8617 3.66045 11.6774 3.53646 11.4743 3.45185C11.2712 3.36723 11.0533 3.32367 10.8333 3.32367C10.6133 3.32367 10.3954 3.36723 10.1924 3.45185C9.98925 3.53646 9.80492 3.66045 9.64998 3.81667L4.64998 8.81667C4.49377 8.97161 4.36978 9.15594 4.28516 9.35904C4.20055 9.56214 4.15698 9.77998 4.15698 10C4.15698 10.22 4.20055 10.4379 4.28516 10.641C4.36978 10.8441 4.49377 11.0284 4.64998 11.1833L9.64998 16.1833Z" fill="#453636"/>
</svg>
