<svg width="300" height="104" viewBox="0 0 300 104" fill="none" xmlns="http://www.w3.org/2000/svg">
<path d="M77.212 53.824C78.7 54.376 79.852 55.18 80.668 56.236C81.484 57.292 81.892 58.564 81.892 60.052C81.892 62.26 80.98 63.976 79.156 65.2C77.332 66.4 74.692 67 71.236 67H57.052V41.8H70.516C73.876 41.8 76.408 42.4 78.112 43.6C79.84 44.8 80.704 46.396 80.704 48.388C80.704 49.564 80.404 50.62 79.804 51.556C79.228 52.492 78.364 53.248 77.212 53.824ZM65.404 47.74V51.484H69.364C71.212 51.484 72.136 50.86 72.136 49.612C72.136 48.364 71.212 47.74 69.364 47.74H65.404ZM70.516 61.06C72.388 61.06 73.324 60.4 73.324 59.08C73.324 57.76 72.388 57.1 70.516 57.1H65.404V61.06H70.516ZM84.8958 41.8H93.3918V67H84.8958V41.8ZM110.694 67.576C107.982 67.576 105.546 67.012 103.386 65.884C101.226 64.756 99.5337 63.196 98.3097 61.204C97.0857 59.188 96.4737 56.92 96.4737 54.4C96.4737 51.88 97.0857 49.624 98.3097 47.632C99.5337 45.616 101.226 44.044 103.386 42.916C105.546 41.788 107.982 41.224 110.694 41.224C113.406 41.224 115.842 41.788 118.002 42.916C120.162 44.044 121.854 45.616 123.078 47.632C124.302 49.624 124.914 51.88 124.914 54.4C124.914 56.92 124.302 59.188 123.078 61.204C121.854 63.196 120.162 64.756 118.002 65.884C115.842 67.012 113.406 67.576 110.694 67.576ZM110.694 60.7C111.75 60.7 112.698 60.448 113.538 59.944C114.402 59.416 115.086 58.684 115.59 57.748C116.094 56.788 116.346 55.672 116.346 54.4C116.346 53.128 116.094 52.024 115.59 51.088C115.086 50.128 114.402 49.396 113.538 48.892C112.698 48.364 111.75 48.1 110.694 48.1C109.638 48.1 108.678 48.364 107.814 48.892C106.974 49.396 106.302 50.128 105.798 51.088C105.294 52.024 105.042 53.128 105.042 54.4C105.042 55.672 105.294 56.788 105.798 57.748C106.302 58.684 106.974 59.416 107.814 59.944C108.678 60.448 109.638 60.7 110.694 60.7ZM141.029 67.576C138.365 67.576 135.965 67.024 133.829 65.92C131.693 64.792 130.013 63.232 128.789 61.24C127.589 59.224 126.989 56.944 126.989 54.4C126.989 51.856 127.589 49.588 128.789 47.596C130.013 45.58 131.693 44.02 133.829 42.916C135.965 41.788 138.365 41.224 141.029 41.224C143.477 41.224 145.661 41.656 147.581 42.52C149.501 43.384 151.085 44.632 152.333 46.264L146.969 51.052C145.409 49.084 143.573 48.1 141.461 48.1C139.685 48.1 138.257 48.676 137.177 49.828C136.097 50.956 135.557 52.48 135.557 54.4C135.557 56.32 136.097 57.856 137.177 59.008C138.257 60.136 139.685 60.7 141.461 60.7C143.573 60.7 145.409 59.716 146.969 57.748L152.333 62.536C151.085 64.168 149.501 65.416 147.581 66.28C145.661 67.144 143.477 67.576 141.029 67.576ZM179.626 41.8V67H171.13V57.712H163.282V67H154.786V41.8H163.282V50.728H171.13V41.8H179.626ZM204.672 60.592V67H183.72V41.8H204.204V48.208H192.072V51.16H202.728V57.28H192.072V60.592H204.672ZM230.443 67L230.371 55.516L224.899 64.732H221.155L215.683 55.912V67H207.943V41.8H214.927L223.135 55.228L231.127 41.8H238.111L238.183 67H230.443ZM242.29 41.8H250.786V67H242.29V41.8ZM272.048 62.608H262.472L260.78 67H252.14L263.156 41.8H271.508L282.524 67H273.74L272.048 62.608ZM269.708 56.488L267.26 50.152L264.812 56.488H269.708Z" fill="#453636"/>
<path d="M58.036 11.266C58.036 9.088 57.739 7.625 57.145 6.877C57.431 6.459 57.926 6.25 58.63 6.25C58.762 6.25 58.905 6.261 59.059 6.283C59.609 6.833 59.884 8.428 59.884 11.068C59.884 12.498 59.818 14.159 59.686 16.051C59.422 19.351 59.29 21.771 59.29 23.311C59.29 27.469 60.093 29.548 61.699 29.548C61.699 29.548 62.106 29.471 62.92 29.317C63.118 29.317 63.283 29.405 63.415 29.581C63.349 30.373 62.7 30.769 61.468 30.769C60.258 30.769 59.323 30.406 58.663 29.68C58.003 28.932 57.585 28.008 57.409 26.908C57.255 25.786 57.178 24.862 57.178 24.136C57.178 23.41 57.189 22.618 57.211 21.76C57.233 20.88 57.332 19.626 57.508 17.998C57.86 14.698 58.036 12.454 58.036 11.266ZM75.2383 21.496L75.0733 25.291C75.0733 27.205 75.2933 28.492 75.7333 29.152C75.9973 29.592 76.3603 29.812 76.8223 29.812C76.9543 29.812 77.1413 29.779 77.3833 29.713C77.8453 29.581 78.2303 29.647 78.5383 29.911C78.3843 30.681 77.6143 31.066 76.2283 31.066C75.2823 31.066 74.6553 30.67 74.3473 29.878C74.1053 29.284 73.9293 28.547 73.8193 27.667C73.7093 26.765 73.6213 26.149 73.5553 25.819C72.1253 28.547 70.7393 30.208 69.3973 30.802C68.7153 31.11 67.9233 31.264 67.0213 31.264C66.1193 31.264 65.4153 30.835 64.9093 29.977C64.4253 29.097 64.1833 27.821 64.1833 26.149C64.1833 24.477 64.4583 22.728 65.0083 20.902C65.5583 19.054 66.3613 17.503 67.4173 16.249C68.4733 14.973 69.6283 14.335 70.8823 14.335C72.6863 14.335 73.8853 15.083 74.4793 16.579C74.9853 17.855 75.2383 19.494 75.2383 21.496ZM67.1533 20.44C66.8453 21.628 66.6143 22.761 66.4603 23.839C66.3063 24.895 66.2293 25.841 66.2293 26.677C66.2293 27.491 66.3943 28.195 66.7243 28.789C67.0763 29.383 67.5273 29.68 68.0773 29.68C69.2653 29.68 70.4093 28.558 71.5093 26.314C72.6093 24.07 73.1593 21.98 73.1593 20.044C73.1593 18.79 72.8293 17.756 72.1693 16.942C71.7293 16.414 71.1463 16.15 70.4203 16.15C69.7163 16.15 69.0673 16.568 68.4733 17.404C67.9013 18.218 67.4613 19.23 67.1533 20.44ZM81.7465 9.847C81.7025 10.463 81.2515 10.771 80.3935 10.771C79.6895 10.727 79.3375 9.77 79.3375 7.9C79.3375 7.68 79.3375 7.46 79.3375 7.24C79.3595 6.668 79.7335 6.382 80.4595 6.382C80.8775 6.382 81.1855 6.426 81.3835 6.514C81.6255 7.438 81.7465 8.549 81.7465 9.847ZM77.0275 37.501C79.0515 37.501 80.0635 34.025 80.0635 27.073C80.0635 25.401 79.9975 23.311 79.8655 20.803C79.7555 18.295 79.7005 16.843 79.7005 16.447C79.7005 15.523 80.1405 15.061 81.0205 15.061C81.5265 15.061 81.7795 15.347 81.7795 15.919L81.7465 16.843C81.7465 17.437 81.8015 18.394 81.9115 19.714C82.1975 23.762 82.3405 26.578 82.3405 28.162C82.3405 29.746 82.2635 31.11 82.1095 32.254C81.9775 33.42 81.7355 34.553 81.3835 35.653C81.0315 36.775 80.4815 37.644 79.7335 38.26C78.9855 38.898 78.0835 39.217 77.0275 39.217C76.4115 39.217 75.8615 39.129 75.3775 38.953C74.8935 38.799 74.6515 38.59 74.6515 38.326C74.6515 38.018 74.7505 37.787 74.9485 37.633C75.1465 37.501 75.3555 37.424 75.5755 37.402C75.7735 37.402 76.0485 37.413 76.4005 37.435C76.7525 37.479 76.9615 37.501 77.0275 37.501ZM86.3062 17.173C85.3162 17.173 84.6452 16.931 84.2932 16.447C84.2932 16.095 84.4362 15.82 84.7222 15.622C85.0302 15.424 85.3602 15.303 85.7122 15.259C86.0642 15.193 86.6362 15.138 87.4282 15.094C87.4942 14.5 87.5272 13.741 87.5272 12.817C87.5492 11.871 87.5712 11.068 87.5932 10.408C87.6592 8.67 87.9232 7.603 88.3852 7.207C88.5832 7.031 88.7922 6.943 89.0122 6.943C89.2542 6.943 89.4632 6.965 89.6392 7.009C89.7052 8.593 89.7382 9.55 89.7382 9.88L89.5402 14.83C89.5842 14.852 89.7052 14.863 89.9032 14.863L92.2792 14.764C93.9952 14.764 94.8532 15.028 94.8532 15.556C94.8532 16.304 94.5452 16.744 93.9292 16.876C93.6432 16.942 93.3022 16.975 92.9062 16.975C92.5322 16.975 92.0372 16.931 91.4212 16.843C90.8272 16.733 90.3982 16.678 90.1342 16.678C89.8702 16.678 89.6942 16.689 89.6062 16.711C89.5402 17.349 89.5072 17.987 89.5072 18.625C89.5072 19.241 89.5182 20.022 89.5402 20.968C89.5842 21.892 89.6722 23.003 89.8042 24.301C89.9582 25.599 90.2772 26.721 90.7612 27.667C91.2452 28.591 91.8612 29.053 92.6092 29.053C92.9832 29.053 93.4232 28.91 93.9292 28.624C94.4352 28.316 94.8202 28.162 95.0842 28.162C95.3702 28.162 95.6122 28.228 95.8102 28.36C96.0302 28.47 96.1402 28.602 96.1402 28.756C96.1402 29.218 95.6672 29.669 94.7212 30.109C93.7972 30.527 93.0052 30.736 92.3452 30.736C89.9252 30.736 88.4182 28.448 87.8242 23.872C87.6482 22.552 87.5162 20.286 87.4282 17.074C87.0762 17.14 86.7022 17.173 86.3062 17.173ZM99.2223 17.305C100.344 15.589 101.961 14.731 104.073 14.731C106.185 14.731 107.868 15.589 109.122 17.305C110.398 19.021 111.036 20.979 111.036 23.179C111.036 25.357 110.343 27.205 108.957 28.723C107.571 30.241 105.811 31 103.677 31C101.543 31 99.9923 30.406 99.0243 29.218C98.0563 28.008 97.5723 26.314 97.5723 24.136C97.5723 21.298 98.1223 19.021 99.2223 17.305ZM100.674 19.054C100.388 19.912 100.168 20.77 100.014 21.628C99.8823 22.486 99.8163 23.289 99.8163 24.037C99.8163 24.763 99.8713 25.434 99.9813 26.05C100.091 26.644 100.278 27.238 100.542 27.832C100.806 28.404 101.202 28.866 101.73 29.218C102.258 29.548 102.885 29.713 103.611 29.713C105.085 29.713 106.317 29.108 107.307 27.898C108.319 26.688 108.825 25.225 108.825 23.509C108.825 21.793 108.363 20.132 107.439 18.526C106.537 16.898 105.426 16.084 104.106 16.084C103.314 16.084 102.621 16.359 102.027 16.909C101.433 17.459 100.982 18.174 100.674 19.054ZM123.155 27.172C122.803 28.184 122.121 29.042 121.109 29.746C120.119 30.45 119.03 30.802 117.842 30.802C116.676 30.802 115.763 30.219 115.103 29.053C114.465 27.865 114.146 26.226 114.146 24.136C114.146 18.24 115.015 15.292 116.753 15.292C116.973 15.292 117.248 15.325 117.578 15.391C117.512 15.743 117.358 16.414 117.116 17.404C116.632 19.34 116.39 21.045 116.39 22.519C116.39 23.993 116.599 25.555 117.017 27.205C117.435 28.833 118.029 29.647 118.799 29.647C119.195 29.647 119.58 29.394 119.954 28.888C120.328 28.382 120.625 27.854 120.845 27.304C121.065 26.732 121.296 26.083 121.538 25.357C121.78 24.631 121.934 24.191 122 24.037C121.67 22.761 121.505 21.463 121.505 20.143C121.505 20.077 121.505 19.879 121.505 19.549C121.505 19.197 121.516 18.856 121.538 18.526C121.56 18.196 121.626 17.8 121.736 17.338C121.956 16.414 122.55 15.952 123.518 15.952C124.332 15.952 124.739 17.184 124.739 19.648C124.739 20.088 124.673 20.726 124.541 21.562C124.431 22.398 124.376 22.981 124.376 23.311C124.376 24.323 124.86 25.632 125.828 27.238C126.796 28.844 127.698 29.647 128.534 29.647C129.392 29.647 130.019 29.163 130.415 28.195C130.811 27.227 131.009 26.149 131.009 24.961C131.009 23.597 130.888 22.563 130.646 21.859C130.426 21.133 130.283 20.66 130.217 20.44C130.173 20.22 130.03 19.879 129.788 19.417C129.568 18.933 129.425 18.625 129.359 18.493C129.315 18.361 129.15 18.042 128.864 17.536C128.578 17.03 128.413 16.744 128.369 16.678C127.731 15.556 127.357 14.94 127.247 14.83C127.797 14.368 128.303 14.137 128.765 14.137C130.107 15.105 131.174 16.689 131.966 18.889C132.758 21.067 133.154 23.058 133.154 24.862C133.154 26.644 132.769 28.052 131.999 29.086C131.251 30.098 130.074 30.604 128.468 30.604C127.346 30.604 126.279 30.296 125.267 29.68C124.277 29.042 123.573 28.206 123.155 27.172ZM146.878 21.496L146.713 25.291C146.713 27.205 146.933 28.492 147.373 29.152C147.637 29.592 148 29.812 148.462 29.812C148.594 29.812 148.781 29.779 149.023 29.713C149.485 29.581 149.87 29.647 150.178 29.911C150.024 30.681 149.254 31.066 147.868 31.066C146.922 31.066 146.295 30.67 145.987 29.878C145.745 29.284 145.569 28.547 145.459 27.667C145.349 26.765 145.261 26.149 145.195 25.819C143.765 28.547 142.379 30.208 141.037 30.802C140.355 31.11 139.563 31.264 138.661 31.264C137.759 31.264 137.055 30.835 136.549 29.977C136.065 29.097 135.823 27.821 135.823 26.149C135.823 24.477 136.098 22.728 136.648 20.902C137.198 19.054 138.001 17.503 139.057 16.249C140.113 14.973 141.268 14.335 142.522 14.335C144.326 14.335 145.525 15.083 146.119 16.579C146.625 17.855 146.878 19.494 146.878 21.496ZM138.793 20.44C138.485 21.628 138.254 22.761 138.1 23.839C137.946 24.895 137.869 25.841 137.869 26.677C137.869 27.491 138.034 28.195 138.364 28.789C138.716 29.383 139.167 29.68 139.717 29.68C140.905 29.68 142.049 28.558 143.149 26.314C144.249 24.07 144.799 21.98 144.799 20.044C144.799 18.79 144.469 17.756 143.809 16.942C143.369 16.414 142.786 16.15 142.06 16.15C141.356 16.15 140.707 16.568 140.113 17.404C139.541 18.218 139.101 19.23 138.793 20.44Z" fill="#918BEE"/>
<path d="M13.4235 68H39.5727C43.3315 68 45.8372 64.2524 44.2909 60.9432L31.8959 34.4156C31.5939 33.7691 31.4377 33.068 31.4377 32.3587V25.4652C31.4377 24.1397 32.5501 23.0652 33.9224 23.0652C35.2946 23.0652 36.4071 21.9907 36.4071 20.6652V19.0326C36.4071 16.8055 34.5379 15 32.2321 15H13.4235M33.0941 68H6.94492C3.18612 68 0.680481 64.2524 2.22672 60.9432L14.6217 34.4156C14.9238 33.7691 15.08 33.068 15.08 32.3587V25.4652C15.08 24.1397 13.9676 23.0652 12.5953 23.0652C11.223 23.0652 10.1106 21.9907 10.1106 20.6652V19.0326C10.1106 16.8055 11.9798 15 14.2855 15H33.0941" stroke="black" stroke-width="3"/>
<g style="mix-blend-mode:darken">
<path d="M37.2353 48.3542L34.6727 47.6058C29.0262 45.9569 22.9375 46.9356 18.0921 50.2708L17.8805 50.415C15.0029 52.3758 11.2539 52.5062 8.24706 50.75L3.91421 61.0634C2.52983 64.3586 4.94973 68 8.52393 68H37.6475C41.176 68 43.5944 64.4437 42.2975 61.1622L37.2353 48.3542Z" fill="#918BEE"/>
<path d="M37.2353 48.3542L34.6727 47.6058C29.0262 45.9569 22.9375 46.9356 18.0921 50.2708L17.8805 50.415C15.0029 52.3758 11.2539 52.5062 8.24706 50.75L3.91421 61.0634C2.52983 64.3586 4.94973 68 8.52393 68H37.6475C41.176 68 43.5944 64.4437 42.2975 61.1622L37.2353 48.3542Z" stroke="black" stroke-width="2"/>
</g>
<circle cx="26.5" cy="39.5" r="1.5" fill="#918BEE" stroke="black" stroke-opacity="0.65" stroke-width="0.3"/>
<circle cx="25" cy="25" r="1" fill="#918BEE" stroke="black" stroke-opacity="0.65" stroke-width="0.3"/>
<circle cx="20.5" cy="32.5" r="0.5" fill="#918BEE" stroke="black" stroke-opacity="0.65" stroke-width="0.3"/>
<path d="M11.6034 52.5148L8 52C9.21097 48.6698 12.3065 46.3952 15.8463 46.2343L21 46H25.0418C26.0085 46 26.9698 45.8555 27.8937 45.5712L30.1491 44.8772C31.9239 44.3311 33.8548 44.7327 35.2647 45.9412L36.1652 46.713C36.3836 46.9002 36.5421 47.1474 36.6211 47.424C36.9659 48.6308 35.7349 49.6853 34.5954 49.1594L31.8046 47.8714C31.2803 47.6294 30.6954 47.5508 30.1259 47.6457L23.7644 48.7059C22.5974 48.9004 21.4742 49.3005 20.447 49.8874L17.979 51.2977C16.0482 52.401 13.8048 52.8293 11.6034 52.5148Z" fill="#635CDA" stroke="black" stroke-opacity="0.5"/>
</svg>
