<svg width="286" height="68" viewBox="0 0 286 68" fill="none" xmlns="http://www.w3.org/2000/svg">
<path d="M80.5397 49.7278C82.0277 50.2798 83.1797 51.0838 83.9957 52.1398C84.8117 53.1958 85.2197 54.4678 85.2197 55.9558C85.2197 58.1638 84.3077 59.8798 82.4837 61.1038C80.6597 62.3038 78.0197 62.9038 74.5637 62.9038H60.3797V37.7038H73.8437C77.2037 37.7038 79.7357 38.3038 81.4397 39.5038C83.1677 40.7038 84.0317 42.2998 84.0317 44.2918C84.0317 45.4678 83.7317 46.5238 83.1317 47.4598C82.5557 48.3958 81.6917 49.1518 80.5397 49.7278ZM68.7317 43.6438V47.3878H72.6917C74.5397 47.3878 75.4637 46.7638 75.4637 45.5158C75.4637 44.2678 74.5397 43.6438 72.6917 43.6438H68.7317ZM73.8437 56.9638C75.7157 56.9638 76.6517 56.3038 76.6517 54.9838C76.6517 53.6638 75.7157 53.0038 73.8437 53.0038H68.7317V56.9638H73.8437Z" fill="#453636"/>
<path d="M88.2234 37.7038H96.7195V62.9038H88.2234V37.7038Z" fill="#453636"/>
<path d="M114.021 63.4798C111.309 63.4798 108.873 62.9158 106.713 61.7878C104.553 60.6598 102.861 59.0998 101.637 57.1078C100.413 55.0918 99.8014 52.8238 99.8014 50.3038C99.8014 47.7838 100.413 45.5278 101.637 43.5358C102.861 41.5198 104.553 39.9478 106.713 38.8198C108.873 37.6918 111.309 37.1278 114.021 37.1278C116.733 37.1278 119.169 37.6918 121.329 38.8198C123.489 39.9478 125.181 41.5198 126.405 43.5358C127.629 45.5278 128.241 47.7838 128.241 50.3038C128.241 52.8238 127.629 55.0918 126.405 57.1078C125.181 59.0998 123.489 60.6598 121.329 61.7878C119.169 62.9158 116.733 63.4798 114.021 63.4798ZM114.021 56.6038C115.077 56.6038 116.025 56.3518 116.865 55.8478C117.729 55.3198 118.413 54.5878 118.917 53.6518C119.421 52.6918 119.673 51.5758 119.673 50.3038C119.673 49.0318 119.421 47.9278 118.917 46.9918C118.413 46.0318 117.729 45.2998 116.865 44.7958C116.025 44.2678 115.077 44.0038 114.021 44.0038C112.965 44.0038 112.005 44.2678 111.141 44.7958C110.301 45.2998 109.629 46.0318 109.125 46.9918C108.621 47.9278 108.369 49.0318 108.369 50.3038C108.369 51.5758 108.621 52.6918 109.125 53.6518C109.629 54.5878 110.301 55.3198 111.141 55.8478C112.005 56.3518 112.965 56.6038 114.021 56.6038Z" fill="#453636"/>
<path d="M144.357 63.4798C141.693 63.4798 139.293 62.9278 137.157 61.8238C135.021 60.6958 133.341 59.1358 132.117 57.1438C130.917 55.1278 130.317 52.8478 130.317 50.3038C130.317 47.7598 130.917 45.4918 132.117 43.4998C133.341 41.4838 135.021 39.9238 137.157 38.8198C139.293 37.6918 141.693 37.1278 144.357 37.1278C146.805 37.1278 148.989 37.5598 150.909 38.4238C152.829 39.2878 154.413 40.5358 155.661 42.1678L150.297 46.9558C148.737 44.9878 146.901 44.0038 144.789 44.0038C143.013 44.0038 141.585 44.5798 140.505 45.7318C139.425 46.8598 138.885 48.3838 138.885 50.3038C138.885 52.2238 139.425 53.7598 140.505 54.9118C141.585 56.0398 143.013 56.6038 144.789 56.6038C146.901 56.6038 148.737 55.6198 150.297 53.6518L155.661 58.4398C154.413 60.0718 152.829 61.3198 150.909 62.1838C148.989 63.0478 146.805 63.4798 144.357 63.4798Z" fill="#453636"/>
<path d="M182.954 37.7038V62.9038H174.458V53.6158H166.61V62.9038H158.114V37.7038H166.61V46.6318H174.458V37.7038H182.954Z" fill="#453636"/>
<path d="M208 56.4958V62.9038H187.048V37.7038H207.532V44.1118H195.4V47.0638H206.056V53.1838H195.4V56.4958H208Z" fill="#453636"/>
<path d="M233.77 62.9038L233.698 51.4198L228.226 60.6358H224.482L219.01 51.8158V62.9038H211.27V37.7038H218.254L226.462 51.1318L234.454 37.7038H241.438L241.51 62.9038H233.77Z" fill="#453636"/>
<path d="M245.618 37.7038H254.114V62.9038H245.618V37.7038Z" fill="#453636"/>
<path d="M275.376 58.5118H265.8L264.108 62.9038H255.468L266.484 37.7038H274.836L285.852 62.9038H277.068L275.376 58.5118ZM273.036 52.3918L270.588 46.0558L268.14 52.3918H273.036Z" fill="#453636"/>
<path d="M61.3637 5.016C61.3637 2.838 61.0667 1.375 60.4727 0.627002C60.7587 0.209001 61.2537 0 61.9577 0C62.0897 0 62.2327 0.0110004 62.3867 0.0330014C62.9367 0.583001 63.2117 2.178 63.2117 4.818C63.2117 6.248 63.1457 7.909 63.0137 9.801C62.7497 13.101 62.6177 15.521 62.6177 17.061C62.6177 21.219 63.4207 23.298 65.0267 23.298C65.0267 23.298 65.4337 23.221 66.2477 23.067C66.4457 23.067 66.6107 23.155 66.7427 23.331C66.6767 24.123 66.0277 24.519 64.7957 24.519C63.5857 24.519 62.6507 24.156 61.9907 23.43C61.3307 22.682 60.9127 21.758 60.7367 20.658C60.5827 19.536 60.5057 18.612 60.5057 17.886C60.5057 17.16 60.5167 16.368 60.5387 15.51C60.5607 14.63 60.6597 13.376 60.8357 11.748C61.1877 8.448 61.3637 6.204 61.3637 5.016Z" fill="#635CDA"/>
<path d="M78.566 15.246L78.401 19.041C78.401 20.955 78.621 22.242 79.061 22.902C79.325 23.342 79.688 23.562 80.15 23.562C80.282 23.562 80.469 23.529 80.711 23.463C81.173 23.331 81.558 23.397 81.866 23.661C81.712 24.431 80.942 24.816 79.556 24.816C78.61 24.816 77.983 24.42 77.675 23.628C77.433 23.034 77.257 22.297 77.147 21.417C77.037 20.515 76.949 19.899 76.883 19.569C75.453 22.297 74.067 23.958 72.725 24.552C72.043 24.86 71.251 25.014 70.349 25.014C69.447 25.014 68.743 24.585 68.237 23.727C67.753 22.847 67.511 21.571 67.511 19.899C67.511 18.227 67.786 16.478 68.336 14.652C68.886 12.804 69.689 11.253 70.745 9.999C71.801 8.723 72.956 8.085 74.21 8.085C76.014 8.085 77.213 8.833 77.807 10.329C78.313 11.605 78.566 13.244 78.566 15.246ZM70.481 14.19C70.173 15.378 69.942 16.511 69.788 17.589C69.634 18.645 69.557 19.591 69.557 20.427C69.557 21.241 69.722 21.945 70.052 22.539C70.404 23.133 70.855 23.43 71.405 23.43C72.593 23.43 73.737 22.308 74.837 20.064C75.937 17.82 76.487 15.73 76.487 13.794C76.487 12.54 76.157 11.506 75.497 10.692C75.057 10.164 74.474 9.9 73.748 9.9C73.044 9.9 72.395 10.318 71.801 11.154C71.229 11.968 70.789 12.98 70.481 14.19Z" fill="#635CDA"/>
<path d="M85.0742 3.597C85.0302 4.213 84.5792 4.521 83.7212 4.521C83.0172 4.477 82.6652 3.52 82.6652 1.65C82.6652 1.43 82.6652 1.21 82.6652 0.990001C82.6872 0.418 83.0612 0.132 83.7872 0.132C84.2052 0.132 84.5132 0.176 84.7112 0.264C84.9532 1.188 85.0742 2.299 85.0742 3.597ZM80.3552 31.251C82.3792 31.251 83.3912 27.775 83.3912 20.823C83.3912 19.151 83.3252 17.061 83.1932 14.553C83.0832 12.045 83.0282 10.593 83.0282 10.197C83.0282 9.273 83.4682 8.811 84.3482 8.811C84.8542 8.811 85.1072 9.097 85.1072 9.669L85.0742 10.593C85.0742 11.187 85.1292 12.144 85.2392 13.464C85.5252 17.512 85.6682 20.328 85.6682 21.912C85.6682 23.496 85.5912 24.86 85.4372 26.004C85.3052 27.17 85.0632 28.303 84.7112 29.403C84.3592 30.525 83.8092 31.394 83.0612 32.01C82.3132 32.648 81.4112 32.967 80.3552 32.967C79.7392 32.967 79.1892 32.879 78.7052 32.703C78.2212 32.549 77.9792 32.34 77.9792 32.076C77.9792 31.768 78.0782 31.537 78.2762 31.383C78.4742 31.251 78.6832 31.174 78.9032 31.152C79.1012 31.152 79.3762 31.163 79.7282 31.185C80.0802 31.229 80.2892 31.251 80.3552 31.251Z" fill="#635CDA"/>
<path d="M89.6339 10.923C88.6439 10.923 87.9729 10.681 87.6209 10.197C87.6209 9.845 87.7639 9.57 88.0499 9.372C88.3579 9.174 88.6879 9.053 89.0399 9.009C89.3919 8.943 89.9639 8.888 90.7559 8.844C90.8219 8.25 90.8549 7.491 90.8549 6.567C90.8769 5.621 90.8989 4.818 90.9209 4.158C90.9869 2.42 91.2509 1.353 91.7129 0.957001C91.9109 0.781001 92.1199 0.693001 92.3399 0.693001C92.5819 0.693001 92.7909 0.715 92.9669 0.759C93.0329 2.343 93.0659 3.3 93.0659 3.63L92.8679 8.58C92.9119 8.602 93.0329 8.613 93.2309 8.613L95.6069 8.514C97.3229 8.514 98.1809 8.778 98.1809 9.306C98.1809 10.054 97.8729 10.494 97.2569 10.626C96.9709 10.692 96.6299 10.725 96.2339 10.725C95.8599 10.725 95.3649 10.681 94.7489 10.593C94.1549 10.483 93.7259 10.428 93.4619 10.428C93.1979 10.428 93.0219 10.439 92.9339 10.461C92.8679 11.099 92.8349 11.737 92.8349 12.375C92.8349 12.991 92.8459 13.772 92.8679 14.718C92.9119 15.642 92.9999 16.753 93.1319 18.051C93.2859 19.349 93.6049 20.471 94.0889 21.417C94.5729 22.341 95.1889 22.803 95.9369 22.803C96.3109 22.803 96.7509 22.66 97.2569 22.374C97.7629 22.066 98.1479 21.912 98.4119 21.912C98.6979 21.912 98.9399 21.978 99.1379 22.11C99.3579 22.22 99.4679 22.352 99.4679 22.506C99.4679 22.968 98.9949 23.419 98.0489 23.859C97.1249 24.277 96.3329 24.486 95.6729 24.486C93.2529 24.486 91.7459 22.198 91.1519 17.622C90.9759 16.302 90.8439 14.036 90.7559 10.824C90.4039 10.89 90.0299 10.923 89.6339 10.923Z" fill="#635CDA"/>
<path d="M102.55 11.055C103.672 9.339 105.289 8.481 107.401 8.481C109.513 8.481 111.196 9.339 112.45 11.055C113.726 12.771 114.364 14.729 114.364 16.929C114.364 19.107 113.671 20.955 112.285 22.473C110.899 23.991 109.139 24.75 107.005 24.75C104.871 24.75 103.32 24.156 102.352 22.968C101.384 21.758 100.9 20.064 100.9 17.886C100.9 15.048 101.45 12.771 102.55 11.055ZM104.002 12.804C103.716 13.662 103.496 14.52 103.342 15.378C103.21 16.236 103.144 17.039 103.144 17.787C103.144 18.513 103.199 19.184 103.309 19.8C103.419 20.394 103.606 20.988 103.87 21.582C104.134 22.154 104.53 22.616 105.058 22.968C105.586 23.298 106.213 23.463 106.939 23.463C108.413 23.463 109.645 22.858 110.635 21.648C111.647 20.438 112.153 18.975 112.153 17.259C112.153 15.543 111.691 13.882 110.767 12.276C109.865 10.648 108.754 9.834 107.434 9.834C106.642 9.834 105.949 10.109 105.355 10.659C104.761 11.209 104.31 11.924 104.002 12.804Z" fill="#635CDA"/>
<path d="M126.483 20.922C126.131 21.934 125.449 22.792 124.437 23.496C123.447 24.2 122.358 24.552 121.17 24.552C120.004 24.552 119.091 23.969 118.431 22.803C117.793 21.615 117.474 19.976 117.474 17.886C117.474 11.99 118.343 9.042 120.081 9.042C120.301 9.042 120.576 9.075 120.906 9.141C120.84 9.493 120.686 10.164 120.444 11.154C119.96 13.09 119.718 14.795 119.718 16.269C119.718 17.743 119.927 19.305 120.345 20.955C120.763 22.583 121.357 23.397 122.127 23.397C122.523 23.397 122.908 23.144 123.282 22.638C123.656 22.132 123.953 21.604 124.173 21.054C124.393 20.482 124.624 19.833 124.866 19.107C125.108 18.381 125.262 17.941 125.328 17.787C124.998 16.511 124.833 15.213 124.833 13.893C124.833 13.827 124.833 13.629 124.833 13.299C124.833 12.947 124.844 12.606 124.866 12.276C124.888 11.946 124.954 11.55 125.064 11.088C125.284 10.164 125.878 9.702 126.846 9.702C127.66 9.702 128.067 10.934 128.067 13.398C128.067 13.838 128.001 14.476 127.869 15.312C127.759 16.148 127.704 16.731 127.704 17.061C127.704 18.073 128.188 19.382 129.156 20.988C130.124 22.594 131.026 23.397 131.862 23.397C132.72 23.397 133.347 22.913 133.743 21.945C134.139 20.977 134.337 19.899 134.337 18.711C134.337 17.347 134.216 16.313 133.974 15.609C133.754 14.883 133.611 14.41 133.545 14.19C133.501 13.97 133.358 13.629 133.116 13.167C132.896 12.683 132.753 12.375 132.687 12.243C132.643 12.111 132.478 11.792 132.192 11.286C131.906 10.78 131.741 10.494 131.697 10.428C131.059 9.306 130.685 8.69 130.575 8.58C131.125 8.118 131.631 7.887 132.093 7.887C133.435 8.855 134.502 10.439 135.294 12.639C136.086 14.817 136.482 16.808 136.482 18.612C136.482 20.394 136.097 21.802 135.327 22.836C134.579 23.848 133.402 24.354 131.796 24.354C130.674 24.354 129.607 24.046 128.595 23.43C127.605 22.792 126.901 21.956 126.483 20.922Z" fill="#635CDA"/>
<path d="M150.206 15.246L150.041 19.041C150.041 20.955 150.261 22.242 150.701 22.902C150.965 23.342 151.328 23.562 151.79 23.562C151.922 23.562 152.109 23.529 152.351 23.463C152.813 23.331 153.198 23.397 153.506 23.661C153.352 24.431 152.582 24.816 151.196 24.816C150.25 24.816 149.623 24.42 149.315 23.628C149.073 23.034 148.897 22.297 148.787 21.417C148.677 20.515 148.589 19.899 148.523 19.569C147.093 22.297 145.707 23.958 144.365 24.552C143.683 24.86 142.891 25.014 141.989 25.014C141.087 25.014 140.383 24.585 139.877 23.727C139.393 22.847 139.151 21.571 139.151 19.899C139.151 18.227 139.426 16.478 139.976 14.652C140.526 12.804 141.329 11.253 142.385 9.999C143.441 8.723 144.596 8.085 145.85 8.085C147.654 8.085 148.853 8.833 149.447 10.329C149.953 11.605 150.206 13.244 150.206 15.246ZM142.121 14.19C141.813 15.378 141.582 16.511 141.428 17.589C141.274 18.645 141.197 19.591 141.197 20.427C141.197 21.241 141.362 21.945 141.692 22.539C142.044 23.133 142.495 23.43 143.045 23.43C144.233 23.43 145.377 22.308 146.477 20.064C147.577 17.82 148.127 15.73 148.127 13.794C148.127 12.54 147.797 11.506 147.137 10.692C146.697 10.164 146.114 9.9 145.388 9.9C144.684 9.9 144.035 10.318 143.441 11.154C142.869 11.968 142.429 12.98 142.121 14.19Z" fill="#635CDA"/>
<path fill-rule="evenodd" clip-rule="evenodd" d="M14.8728 11.2596C13.1909 11.2596 11.9169 12.5636 11.9169 14.0637V15.8061C11.9169 16.3438 12.3832 16.8677 13.0689 16.8677C15.3124 16.8677 17.2208 18.6375 17.2208 20.9292V28.2867C17.2208 29.2645 17.0053 30.2295 16.5907 31.117L3.36136 59.4301C2.21095 61.8922 4.03973 64.8269 7.03816 64.8269H41.8621C44.8605 64.8269 46.6893 61.8922 45.5389 59.4301L32.3096 31.117C31.8949 30.2295 31.6794 29.2645 31.6794 28.2867V20.9292C31.6794 18.6375 33.5878 16.8677 35.8314 16.8677C36.5171 16.8677 36.9833 16.3438 36.9833 15.8061V14.0637C36.9833 12.5636 35.7094 11.2596 34.0274 11.2596H14.8728ZM13.9528 8.329C11.1347 8.75757 8.91691 11.1231 8.91691 14.0637V15.8061C8.91691 18.0979 10.8253 19.8677 13.0689 19.8677C13.7545 19.8677 14.2208 20.3916 14.2208 20.9292V28.2867C14.2208 28.8229 14.1028 29.3546 13.8727 29.847L0.643417 58.1601C-1.5068 62.762 2.013 67.8269 7.03816 67.8269H41.8621C46.8872 67.8269 50.407 62.762 48.2568 58.1601L35.0275 29.847C34.7975 29.3546 34.6794 28.8229 34.6794 28.2867V20.9292C34.6794 20.3916 35.1457 19.8677 35.8314 19.8677C38.075 19.8677 39.9833 18.0979 39.9833 15.8061V14.0637C39.9833 11.1231 37.7655 8.75757 34.9474 8.329V8.25962H13.9528V8.329Z" fill="black"/>
<g style="mix-blend-mode:darken">
<path d="M39.3673 45.3588L36.6322 44.5601C30.6057 42.8002 24.1072 43.8447 18.9357 47.4045L18.7098 47.5583C15.6385 49.6511 11.6372 49.7902 8.42796 47.9159L3.60733 59.3903C2.22295 62.6855 4.64285 66.3269 8.21704 66.3269H40.3021C43.8307 66.3269 46.2491 62.7706 44.9521 59.4891L39.3673 45.3588Z" fill="#918BEE"/>
</g>
<g style="mix-blend-mode:darken">
<path fill-rule="evenodd" clip-rule="evenodd" d="M18.3706 46.5794C23.7894 42.8503 30.5982 41.7562 36.9125 43.6002L40.1174 44.5361L45.8821 59.1215C47.4384 63.0594 44.5363 67.3269 40.3021 67.3269H8.217C3.92796 67.3269 1.02409 62.9572 2.68534 59.003L7.94762 46.4773L8.93224 47.0524C11.8083 48.7321 15.3942 48.6074 18.1467 46.7319L18.3686 46.5807C18.3693 46.5803 18.3699 46.5798 18.3706 46.5794ZM36.3519 45.52C30.6139 43.8443 24.4265 44.8388 19.5026 48.2282L19.4987 48.2308L19.2729 48.3847C16.1976 50.4802 12.2776 50.8012 8.93175 49.2984L4.52923 59.7776C3.42172 62.4138 5.35764 65.3269 8.217 65.3269H40.3021C43.1249 65.3269 45.0596 62.4819 44.0221 59.8567L38.6172 46.1815L36.3519 45.52Z" fill="black"/>
</g>
<path d="M29.5104 35.9087C29.5104 36.7928 28.7936 37.5096 27.9094 37.5096C27.0252 37.5096 26.3085 36.7928 26.3085 35.9087C26.3085 35.0245 27.0252 34.3077 27.9094 34.3077C28.7936 34.3077 29.5104 35.0245 29.5104 35.9087Z" fill="#918BEE"/>
<path fill-rule="evenodd" clip-rule="evenodd" d="M27.9094 34.4577C27.1081 34.4577 26.4584 35.1073 26.4584 35.9087C26.4584 36.71 27.1081 37.3596 27.9094 37.3596C28.7108 37.3596 29.3604 36.71 29.3604 35.9087C29.3604 35.1073 28.7108 34.4577 27.9094 34.4577ZM26.1584 35.9087C26.1584 34.9416 26.9424 34.1577 27.9094 34.1577C28.8764 34.1577 29.6604 34.9416 29.6604 35.9087C29.6604 36.8757 28.8764 37.6596 27.9094 37.6596C26.9424 37.6596 26.1584 36.8757 26.1584 35.9087Z" fill="black" fill-opacity="0.65"/>
<path d="M22.0392 28.4375C22.0392 28.7322 21.8003 28.9712 21.5056 28.9712C21.2108 28.9712 20.9719 28.7322 20.9719 28.4375C20.9719 28.1428 21.2108 27.9038 21.5056 27.9038C21.8003 27.9038 22.0392 28.1428 22.0392 28.4375Z" fill="#918BEE"/>
<path fill-rule="evenodd" clip-rule="evenodd" d="M21.5056 28.0538C21.2937 28.0538 21.1219 28.2256 21.1219 28.4375C21.1219 28.6494 21.2937 28.8212 21.5056 28.8212C21.7174 28.8212 21.8892 28.6494 21.8892 28.4375C21.8892 28.2256 21.7174 28.0538 21.5056 28.0538ZM20.8219 28.4375C20.8219 28.0599 21.128 27.7538 21.5056 27.7538C21.8831 27.7538 22.1892 28.0599 22.1892 28.4375C22.1892 28.8151 21.8831 29.1212 21.5056 29.1212C21.128 29.1212 20.8219 28.8151 20.8219 28.4375Z" fill="black" fill-opacity="0.65"/>
<path d="M12.2388 49.8321L8.16425 49.25C9.45672 45.6957 12.7606 43.2679 16.5387 43.0962L22.0392 42.8462H26.4058C27.4026 42.8462 28.3939 42.6971 29.3466 42.4039L31.8042 41.6478C33.6985 41.0649 35.7593 41.4935 37.264 42.7833L38.2252 43.6072C38.4583 43.807 38.6275 44.0708 38.7118 44.366C39.0798 45.654 37.7659 46.7796 36.5497 46.2182L33.5711 44.8435C33.0115 44.5852 32.3873 44.5013 31.7794 44.6026L24.8709 45.754C23.7039 45.9485 22.5807 46.3486 21.5535 46.9355L18.6144 48.615C16.6836 49.7183 14.4402 50.1466 12.2388 49.8321Z" fill="#635CDA"/>
<path fill-rule="evenodd" clip-rule="evenodd" d="M31.6571 41.1699C33.7153 40.5366 35.9545 41.0023 37.5894 42.4037L38.5506 43.2275C38.8581 43.4911 39.0813 43.8392 39.1926 44.2286C39.6781 45.9279 37.9447 47.4127 36.3401 46.6722L33.3615 45.2974C32.8931 45.0812 32.3705 45.011 31.8616 45.0958L24.9531 46.2472C23.8445 46.432 22.7774 46.812 21.8016 47.3696L18.8625 49.0491C16.8352 50.2076 14.4796 50.6573 12.1681 50.3271L7.48389 49.6579L7.69434 49.0791C9.05584 45.335 12.5361 42.7776 16.516 42.5967L22.0279 42.3462H26.4058C27.3528 42.3462 28.2944 42.2046 29.1996 41.9261L31.6571 41.1699ZM36.9386 43.163C35.5641 41.9848 33.6816 41.5932 31.9512 42.1257L29.4937 42.8818C28.4933 43.1897 27.4524 43.3462 26.4058 43.3462H22.0506L16.5614 43.5957C13.1929 43.7488 10.2226 45.7964 8.86647 48.8452L12.3095 49.3371C14.4009 49.6359 16.5321 49.229 18.3663 48.1809L21.3054 46.5014C22.384 45.8851 23.5634 45.465 24.7887 45.2608L31.6972 44.1094C32.404 43.9916 33.13 44.0892 33.7806 44.3895L36.7592 45.7642C37.5871 46.1464 38.4816 45.3802 38.231 44.5034C38.1736 44.3024 38.0584 44.1228 37.8998 43.9868L36.9386 43.163Z" fill="black" fill-opacity="0.5"/>
</svg>
